{
  "asset": {
    "generator": "glTF-Transform v4.2.1",
    "version": "2.0"
  },
  "accessors": [
    {
      "type": "VEC3",
      "componentType": 5126,
      "count": 4962,
      "max": [
        9.005428314208984,
        60.72834777832031,
        34.609275817871094
      ],
      "min": [
        -9.005428314208984,
        -60.72833251953125,
        -34.60927963256836
      ],
      "bufferView": 0,
      "byteOffset": 0
    },
    {
      "type": "VEC3",
      "componentType": 5126,
      "count": 4962,
      "bufferView": 0,
      "byteOffset": 12
    },
    {
      "type": "VEC2",
      "componentType": 5126,
      "count": 4962,
      "bufferView": 0,
      "byteOffset": 24
    },
    {
      "type": "SCALAR",
      "componentType": 5125,
      "count": 429,
      "bufferView": 1,
      "byteOffset": 0
    },
    {
      "type": "SCALAR",
      "componentType": 5125,
      "count": 12,
      "bufferView": 1,
      "byteOffset": 1716
    },
    {
      "type": "SCALAR",
      "componentType": 5125,
      "count": 12,
      "bufferView": 1,
      "byteOffset": 1764
    },
    {
      "type": "SCALAR",
      "componentType": 5125,
      "count": 39,
      "bufferView": 1,
      "byteOffset": 1812
    },
    {
      "type": "SCALAR",
      "componentType": 5125,
      "count": 12,
      "bufferView": 1,
      "byteOffset": 1968
    },
    {
      "type": "SCALAR",
      "componentType": 5125,
      "count": 48,
      "bufferView": 1,
      "byteOffset": 2016
    },
    {
      "type": "SCALAR",
      "componentType": 5125,
      "count": 6,
      "bufferView": 1,
      "byteOffset": 2208
    },
    {
      "type": "SCALAR",
      "componentType": 5125,
      "count": 18,
      "bufferView": 1,
      "byteOffset": 2232
    },
    {
      "type": "SCALAR",
      "componentType": 5125,
      "count": 6,
      "bufferView": 1,
      "byteOffset": 2304
    },
    {
      "type": "SCALAR",
      "componentType": 5125,
      "count": 42,
      "bufferView": 1,
      "byteOffset": 2328
    },
    {
      "type": "SCALAR",
      "componentType": 5125,
      "count": 411,
      "bufferView": 1,
      "byteOffset": 2496
    },
    {
      "type": "SCALAR",
      "componentType": 5125,
      "count": 12,
      "bufferView": 1,
      "byteOffset": 4140
    },
    {
      "type": "SCALAR",
      "componentType": 5125,
      "count": 12,
      "bufferView": 1,
      "byteOffset": 4188
    },
    {
      "type": "SCALAR",
      "componentType": 5125,
      "count": 63,
      "bufferView": 1,
      "byteOffset": 4236
    },
    {
      "type": "SCALAR",
      "componentType": 5125,
      "count": 12,
      "bufferView": 1,
      "byteOffset": 4488
    },
    {
      "type": "SCALAR",
      "componentType": 5125,
      "count": 36,
      "bufferView": 1,
      "byteOffset": 4536
    },
    {
      "type": "SCALAR",
      "componentType": 5125,
      "count": 12,
      "bufferView": 1,
      "byteOffset": 4680
    },
    {
      "type": "SCALAR",
      "componentType": 5125,
      "count": 30,
      "bufferView": 1,
      "byteOffset": 4728
    },
    {
      "type": "SCALAR",
      "componentType": 5125,
      "count": 309,
      "bufferView": 1,
      "byteOffset": 4848
    },
    {
      "type": "SCALAR",
      "componentType": 5125,
      "count": 12,
      "bufferView": 1,
      "byteOffset": 6084
    },
    {
      "type": "SCALAR",
      "componentType": 5125,
      "count": 12,
      "bufferView": 1,
      "byteOffset": 6132
    },
    {
      "type": "SCALAR",
      "componentType": 5125,
      "count": 69,
      "bufferView": 1,
      "byteOffset": 6180
    },
    {
      "type": "SCALAR",
      "componentType": 5125,
      "count": 12,
      "bufferView": 1,
      "byteOffset": 6456
    },
    {
      "type": "SCALAR",
      "componentType": 5125,
      "count": 60,
      "bufferView": 1,
      "byteOffset": 6504
    },
    {
      "type": "SCALAR",
      "componentType": 5125,
      "count": 6,
      "bufferView": 1,
      "byteOffset": 6744
    },
    {
      "type": "SCALAR",
      "componentType": 5125,
      "count": 18,
      "bufferView": 1,
      "byteOffset": 6768
    },
    {
      "type": "SCALAR",
      "componentType": 5125,
      "count": 6,
      "bufferView": 1,
      "byteOffset": 6840
    },
    {
      "type": "SCALAR",
      "componentType": 5125,
      "count": 42,
      "bufferView": 1,
      "byteOffset": 6864
    },
    {
      "type": "SCALAR",
      "componentType": 5125,
      "count": 459,
      "bufferView": 1,
      "byteOffset": 7032
    },
    {
      "type": "SCALAR",
      "componentType": 5125,
      "count": 12,
      "bufferView": 1,
      "byteOffset": 8868
    },
    {
      "type": "SCALAR",
      "componentType": 5125,
      "count": 12,
      "bufferView": 1,
      "byteOffset": 8916
    },
    {
      "type": "SCALAR",
      "componentType": 5125,
      "count": 87,
      "bufferView": 1,
      "byteOffset": 8964
    },
    {
      "type": "SCALAR",
      "componentType": 5125,
      "count": 12,
      "bufferView": 1,
      "byteOffset": 9312
    },
    {
      "type": "SCALAR",
      "componentType": 5125,
      "count": 48,
      "bufferView": 1,
      "byteOffset": 9360
    },
    {
      "type": "SCALAR",
      "componentType": 5125,
      "count": 12,
      "bufferView": 1,
      "byteOffset": 9552
    },
    {
      "type": "SCALAR",
      "componentType": 5125,
      "count": 30,
      "bufferView": 1,
      "byteOffset": 9600
    },
    {
      "type": "SCALAR",
      "componentType": 5125,
      "count": 468,
      "bufferView": 1,
      "byteOffset": 9720
    },
    {
      "type": "SCALAR",
      "componentType": 5125,
      "count": 1530,
      "bufferView": 1,
      "byteOffset": 11592
    },
    {
      "type": "SCALAR",
      "componentType": 5125,
      "count": 6,
      "bufferView": 1,
      "byteOffset": 17712
    },
    {
      "type": "SCALAR",
      "componentType": 5125,
      "count": 504,
      "bufferView": 1,
      "byteOffset": 17736
    },
    {
      "type": "SCALAR",
      "componentType": 5125,
      "count": 24,
      "bufferView": 1,
      "byteOffset": 19752
    }
  ],
  "bufferViews": [
    {
      "buffer": 0,
      "byteOffset": 0,
      "byteLength": 158784,
      "byteStride": 32,
      "target": 34962
    },
    {
      "buffer": 0,
      "byteOffset": 158784,
      "byteLength": 19848,
      "target": 34963
    }
  ],
  "buffers": [
    {
      "uri": "buffer.bin",
      "byteLength": 178632
    }
  ],
  "materials": [
    {
      "name": "Material #43",
      "pbrMetallicRoughness": {
        "baseColorFactor": [
          0.0117647061124444,
          0.0117647061124444,
          0.0117647061124444,
          1
        ],
        "roughnessFactor": 0,
        "metallicFactor": 0
      }
    },
    {
      "name": "Material #19",
      "pbrMetallicRoughness": {
        "baseColorFactor": [
          0.4588235318660736,
          0.4588235318660736,
          0.4588235318660736,
          1
        ],
        "roughnessFactor": 0,
        "metallicFactor": 0
      }
    },
    {
      "name": "Material #187",
      "pbrMetallicRoughness": {
        "baseColorFactor": [
          0.019607843831181526,
          0.3803921639919281,
          0,
          1
        ],
        "roughnessFactor": 0,
        "metallicFactor": 0
      }
    },
    {
      "name": "Material #304",
      "pbrMetallicRoughness": {
        "baseColorFactor": [
          0,
          0,
          0,
          1
        ],
        "roughnessFactor": 0,
        "metallicFactor": 0
      }
    }
  ],
  "meshes": [
    {
      "primitives": [
        {
          "attributes": {
            "POSITION": 0,
            "NORMAL": 1,
            "TEXCOORD_0": 2
          },
          "mode": 4,
          "material": 0,
          "indices": 3
        }
      ]
    },
    {
      "primitives": [
        {
          "attributes": {
            "POSITION": 0,
            "NORMAL": 1,
            "TEXCOORD_0": 2
          },
          "mode": 4,
          "material": 1,
          "indices": 4
        }
      ]
    },
    {
      "primitives": [
        {
          "attributes": {
            "POSITION": 0,
            "NORMAL": 1,
            "TEXCOORD_0": 2
          },
          "mode": 4,
          "material": 2,
          "indices": 5
        }
      ]
    },
    {
      "primitives": [
        {
          "attributes": {
            "POSITION": 0,
            "NORMAL": 1,
            "TEXCOORD_0": 2
          },
          "mode": 4,
          "material": 0,
          "indices": 6
        }
      ]
    },
    {
      "primitives": [
        {
          "attributes": {
            "POSITION": 0,
            "NORMAL": 1,
            "TEXCOORD_0": 2
          },
          "mode": 4,
          "material": 2,
          "indices": 7
        }
      ]
    },
    {
      "primitives": [
        {
          "attributes": {
            "POSITION": 0,
            "NORMAL": 1,
            "TEXCOORD_0": 2
          },
          "mode": 4,
          "material": 0,
          "indices": 8
        }
      ]
    },
    {
      "primitives": [
        {
          "attributes": {
            "POSITION": 0,
            "NORMAL": 1,
            "TEXCOORD_0": 2
          },
          "mode": 4,
          "material": 1,
          "indices": 9
        }
      ]
    },
    {
      "primitives": [
        {
          "attributes": {
            "POSITION": 0,
            "NORMAL": 1,
            "TEXCOORD_0": 2
          },
          "mode": 4,
          "material": 2,
          "indices": 10
        }
      ]
    },
    {
      "primitives": [
        {
          "attributes": {
            "POSITION": 0,
            "NORMAL": 1,
            "TEXCOORD_0": 2
          },
          "mode": 4,
          "material": 1,
          "indices": 11
        }
      ]
    },
    {
      "primitives": [
        {
          "attributes": {
            "POSITION": 0,
            "NORMAL": 1,
            "TEXCOORD_0": 2
          },
          "mode": 4,
          "material": 2,
          "indices": 12
        }
      ]
    },
    {
      "primitives": [
        {
          "attributes": {
            "POSITION": 0,
            "NORMAL": 1,
            "TEXCOORD_0": 2
          },
          "mode": 4,
          "material": 0,
          "indices": 13
        }
      ]
    },
    {
      "primitives": [
        {
          "attributes": {
            "POSITION": 0,
            "NORMAL": 1,
            "TEXCOORD_0": 2
          },
          "mode": 4,
          "material": 1,
          "indices": 14
        }
      ]
    },
    {
      "primitives": [
        {
          "attributes": {
            "POSITION": 0,
            "NORMAL": 1,
            "TEXCOORD_0": 2
          },
          "mode": 4,
          "material": 2,
          "indices": 15
        }
      ]
    },
    {
      "primitives": [
        {
          "attributes": {
            "POSITION": 0,
            "NORMAL": 1,
            "TEXCOORD_0": 2
          },
          "mode": 4,
          "material": 0,
          "indices": 16
        }
      ]
    },
    {
      "primitives": [
        {
          "attributes": {
            "POSITION": 0,
            "NORMAL": 1,
            "TEXCOORD_0": 2
          },
          "mode": 4,
          "material": 2,
          "indices": 17
        }
      ]
    },
    {
      "primitives": [
        {
          "attributes": {
            "POSITION": 0,
            "NORMAL": 1,
            "TEXCOORD_0": 2
          },
          "mode": 4,
          "material": 0,
          "indices": 18
        }
      ]
    },
    {
      "primitives": [
        {
          "attributes": {
            "POSITION": 0,
            "NORMAL": 1,
            "TEXCOORD_0": 2
          },
          "mode": 4,
          "material": 1,
          "indices": 19
        }
      ]
    },
    {
      "primitives": [
        {
          "attributes": {
            "POSITION": 0,
            "NORMAL": 1,
            "TEXCOORD_0": 2
          },
          "mode": 4,
          "material": 2,
          "indices": 20
        }
      ]
    },
    {
      "primitives": [
        {
          "attributes": {
            "POSITION": 0,
            "NORMAL": 1,
            "TEXCOORD_0": 2
          },
          "mode": 4,
          "material": 0,
          "indices": 21
        }
      ]
    },
    {
      "primitives": [
        {
          "attributes": {
            "POSITION": 0,
            "NORMAL": 1,
            "TEXCOORD_0": 2
          },
          "mode": 4,
          "material": 1,
          "indices": 22
        }
      ]
    },
    {
      "primitives": [
        {
          "attributes": {
            "POSITION": 0,
            "NORMAL": 1,
            "TEXCOORD_0": 2
          },
          "mode": 4,
          "material": 2,
          "indices": 23
        }
      ]
    },
    {
      "primitives": [
        {
          "attributes": {
            "POSITION": 0,
            "NORMAL": 1,
            "TEXCOORD_0": 2
          },
          "mode": 4,
          "material": 0,
          "indices": 24
        }
      ]
    },
    {
      "primitives": [
        {
          "attributes": {
            "POSITION": 0,
            "NORMAL": 1,
            "TEXCOORD_0": 2
          },
          "mode": 4,
          "material": 2,
          "indices": 25
        }
      ]
    },
    {
      "primitives": [
        {
          "attributes": {
            "POSITION": 0,
            "NORMAL": 1,
            "TEXCOORD_0": 2
          },
          "mode": 4,
          "material": 0,
          "indices": 26
        }
      ]
    },
    {
      "primitives": [
        {
          "attributes": {
            "POSITION": 0,
            "NORMAL": 1,
            "TEXCOORD_0": 2
          },
          "mode": 4,
          "material": 1,
          "indices": 27
        }
      ]
    },
    {
      "primitives": [
        {
          "attributes": {
            "POSITION": 0,
            "NORMAL": 1,
            "TEXCOORD_0": 2
          },
          "mode": 4,
          "material": 2,
          "indices": 28
        }
      ]
    },
    {
      "primitives": [
        {
          "attributes": {
            "POSITION": 0,
            "NORMAL": 1,
            "TEXCOORD_0": 2
          },
          "mode": 4,
          "material": 1,
          "indices": 29
        }
      ]
    },
    {
      "primitives": [
        {
          "attributes": {
            "POSITION": 0,
            "NORMAL": 1,
            "TEXCOORD_0": 2
          },
          "mode": 4,
          "material": 2,
          "indices": 30
        }
      ]
    },
    {
      "primitives": [
        {
          "attributes": {
            "POSITION": 0,
            "NORMAL": 1,
            "TEXCOORD_0": 2
          },
          "mode": 4,
          "material": 0,
          "indices": 31
        }
      ]
    },
    {
      "primitives": [
        {
          "attributes": {
            "POSITION": 0,
            "NORMAL": 1,
            "TEXCOORD_0": 2
          },
          "mode": 4,
          "material": 1,
          "indices": 32
        }
      ]
    },
    {
      "primitives": [
        {
          "attributes": {
            "POSITION": 0,
            "NORMAL": 1,
            "TEXCOORD_0": 2
          },
          "mode": 4,
          "material": 2,
          "indices": 33
        }
      ]
    },
    {
      "primitives": [
        {
          "attributes": {
            "POSITION": 0,
            "NORMAL": 1,
            "TEXCOORD_0": 2
          },
          "mode": 4,
          "material": 0,
          "indices": 34
        }
      ]
    },
    {
      "primitives": [
        {
          "attributes": {
            "POSITION": 0,
            "NORMAL": 1,
            "TEXCOORD_0": 2
          },
          "mode": 4,
          "material": 2,
          "indices": 35
        }
      ]
    },
    {
      "primitives": [
        {
          "attributes": {
            "POSITION": 0,
            "NORMAL": 1,
            "TEXCOORD_0": 2
          },
          "mode": 4,
          "material": 0,
          "indices": 36
        }
      ]
    },
    {
      "primitives": [
        {
          "attributes": {
            "POSITION": 0,
            "NORMAL": 1,
            "TEXCOORD_0": 2
          },
          "mode": 4,
          "material": 1,
          "indices": 37
        }
      ]
    },
    {
      "primitives": [
        {
          "attributes": {
            "POSITION": 0,
            "NORMAL": 1,
            "TEXCOORD_0": 2
          },
          "mode": 4,
          "material": 2,
          "indices": 38
        }
      ]
    },
    {
      "primitives": [
        {
          "attributes": {
            "POSITION": 0,
            "NORMAL": 1,
            "TEXCOORD_0": 2
          },
          "mode": 4,
          "material": 0,
          "indices": 39
        }
      ]
    },
    {
      "primitives": [
        {
          "attributes": {
            "POSITION": 0,
            "NORMAL": 1,
            "TEXCOORD_0": 2
          },
          "mode": 4,
          "material": 1,
          "indices": 40
        }
      ]
    },
    {
      "primitives": [
        {
          "attributes": {
            "POSITION": 0,
            "NORMAL": 1,
            "TEXCOORD_0": 2
          },
          "mode": 4,
          "material": 3,
          "indices": 41
        }
      ]
    },
    {
      "primitives": [
        {
          "attributes": {
            "POSITION": 0,
            "NORMAL": 1,
            "TEXCOORD_0": 2
          },
          "mode": 4,
          "material": 1,
          "indices": 42
        }
      ]
    },
    {
      "primitives": [
        {
          "attributes": {
            "POSITION": 0,
            "NORMAL": 1,
            "TEXCOORD_0": 2
          },
          "mode": 4,
          "material": 0,
          "indices": 43
        }
      ]
    }
  ],
  "nodes": [
    {
      "name": "empty_1",
      "children": [
        1
      ]
    },
    {
      "name": "FBX_Root",
      "extras": {
        "name": "FBX_Root"
      },
      "children": [
        2
      ]
    },
    {
      "name": "casette003",
      "extras": {
        "name": "casette003"
      },
      "translation": [
        -1988.0089111328125,
        107.94839477539062,
        -2466.30859375
      ],
      "rotation": [
        2.3883680864333524e-7,
        0.7071067811865074,
        0.7071067811865072,
        -2.3883681681834445e-7
      ],
      "scale": [
        2.539999787972614,
        2.539999874912821,
        2.539999874912823
      ],
      "children": [
        3
      ]
    },
    {
      "name": "Box030",
      "extras": {
        "name": "Box030"
      },
      "scale": [
        -1,
        1.0000000000000038,
        1.000000000000004
      ],
      "children": [
        4,
        5,
        6,
        7,
        8,
        9,
        10,
        11,
        12,
        13,
        14,
        15,
        16,
        17,
        18,
        19,
        20,
        21,
        22,
        23,
        24,
        25,
        26,
        27,
        28,
        29,
        30,
        31,
        32,
        33,
        34,
        35,
        36,
        37,
        38,
        39,
        40,
        41,
        42,
        43,
        44
      ]
    },
    {
      "name": "mesh_0",
      "mesh": 0
    },
    {
      "name": "mesh_0_1",
      "mesh": 1
    },
    {
      "name": "mesh_0_2",
      "mesh": 2
    },
    {
      "name": "mesh_0_3",
      "mesh": 3
    },
    {
      "name": "mesh_0_4",
      "mesh": 4
    },
    {
      "name": "mesh_0_5",
      "mesh": 5
    },
    {
      "name": "mesh_0_6",
      "mesh": 6
    },
    {
      "name": "mesh_0_7",
      "mesh": 7
    },
    {
      "name": "mesh_0_8",
      "mesh": 8
    },
    {
      "name": "mesh_0_9",
      "mesh": 9
    },
    {
      "name": "mesh_0_10",
      "mesh": 10
    },
    {
      "name": "mesh_0_11",
      "mesh": 11
    },
    {
      "name": "mesh_0_12",
      "mesh": 12
    },
    {
      "name": "mesh_0_13",
      "mesh": 13
    },
    {
      "name": "mesh_0_14",
      "mesh": 14
    },
    {
      "name": "mesh_0_15",
      "mesh": 15
    },
    {
      "name": "mesh_0_16",
      "mesh": 16
    },
    {
      "name": "mesh_0_17",
      "mesh": 17
    },
    {
      "name": "mesh_0_18",
      "mesh": 18
    },
    {
      "name": "mesh_0_19",
      "mesh": 19
    },
    {
      "name": "mesh_0_20",
      "mesh": 20
    },
    {
      "name": "mesh_0_21",
      "mesh": 21
    },
    {
      "name": "mesh_0_22",
      "mesh": 22
    },
    {
      "name": "mesh_0_23",
      "mesh": 23
    },
    {
      "name": "mesh_0_24",
      "mesh": 24
    },
    {
      "name": "mesh_0_25",
      "mesh": 25
    },
    {
      "name": "mesh_0_26",
      "mesh": 26
    },
    {
      "name": "mesh_0_27",
      "mesh": 27
    },
    {
      "name": "mesh_0_28",
      "mesh": 28
    },
    {
      "name": "mesh_0_29",
      "mesh": 29
    },
    {
      "name": "mesh_0_30",
      "mesh": 30
    },
    {
      "name": "mesh_0_31",
      "mesh": 31
    },
    {
      "name": "mesh_0_32",
      "mesh": 32
    },
    {
      "name": "mesh_0_33",
      "mesh": 33
    },
    {
      "name": "mesh_0_34",
      "mesh": 34
    },
    {
      "name": "mesh_0_35",
      "mesh": 35
    },
    {
      "name": "mesh_0_36",
      "mesh": 36
    },
    {
      "name": "mesh_0_37",
      "mesh": 37
    },
    {
      "name": "mesh_0_38",
      "mesh": 38
    },
    {
      "name": "mesh_0_39",
      "mesh": 39
    },
    {
      "name": "mesh_0_40",
      "mesh": 40
    }
  ],
  "scenes": [
    {
      "name": "AuxScene",
      "nodes": [
        0
      ]
    }
  ],
  "scene": 0
}